<svg width="640" height="420" viewBox="0 0 640 420" xmlns="http://www.w3.org/2000/svg">
  <defs>
    <linearGradient id="bg" x1="0%" y1="0%" x2="100%" y2="100%">
      <stop offset="0%" stop-color="#FFFFFF"/>
      <stop offset="100%" stop-color="#FFF5EE"/>
    </linearGradient>
    <radialGradient id="warmGlow" cx="50%" cy="50%" r="60%">
      <stop offset="0%" stop-color="#FDBA74" stop-opacity="0.18"/>
      <stop offset="100%" stop-color="#F97316" stop-opacity="0"/>
    </radialGradient>
    <filter id="cardShadow" x="-8%" y="-8%" width="116%" height="130%">
      <feDropShadow dx="0" dy="4" stdDeviation="10" flood-color="#F9731618"/>
    </filter>
    <filter id="nodeShadow" x="-20%" y="-20%" width="140%" height="140%">
      <feDropShadow dx="0" dy="3" stdDeviation="6" flood-color="#F9731625"/>
    </filter>
    <filter id="glowBlur" x="-80%" y="-80%" width="260%" height="260%">
      <feGaussianBlur stdDeviation="10"/>
    </filter>
  </defs>

  <!-- Background -->
  <rect width="640" height="420" rx="20" fill="url(#bg)"/>
  <rect width="640" height="420" rx="20" fill="url(#warmGlow)"/>

  <!-- Dot grid -->
  <pattern id="dots" x="0" y="0" width="30" height="30" patternUnits="userSpaceOnUse">
    <circle cx="15" cy="15" r="1.2" fill="#F97316" opacity="0.09"/>
  </pattern>
  <rect width="640" height="420" rx="20" fill="url(#dots)"/>

  <!-- CONNECTOR LINES-->
  <line x1="178" y1="130" x2="248" y2="130" stroke="#F97316" stroke-width="2" stroke-dasharray="8 6" opacity="0.55"/>
  <line x1="332" y1="130" x2="402" y2="130" stroke="#F97316" stroke-width="2" stroke-dasharray="8 6" opacity="0.55"/>
  <line x1="486" y1="130" x2="528" y2="130" stroke="#F97316" stroke-width="2" stroke-dasharray="8 6" opacity="0.45"/>
  <line x1="178" y1="290" x2="248" y2="290" stroke="#F97316" stroke-width="2" stroke-dasharray="8 6" opacity="0.5"/>
  <line x1="332" y1="290" x2="402" y2="290" stroke="#F97316" stroke-width="2" stroke-dasharray="8 6" opacity="0.5"/>
  <line x1="486" y1="290" x2="528" y2="290" stroke="#F97316" stroke-width="2" stroke-dasharray="8 6" opacity="0.4"/>
  <line x1="290" y1="168" x2="290" y2="252" stroke="#F97316" stroke-width="1.5" stroke-dasharray="6 5" opacity="0.35"/>
  <line x1="130" y1="158" x2="130" y2="252" stroke="#FDBA74" stroke-width="1.5" stroke-dasharray="5 6" opacity="0.3"/>

  <!-- ARROWHEADS-->
  <polygon points="248,126 240,122 240,134" fill="#F97316" opacity="0.5"/>
  <polygon points="402,126 394,122 394,134" fill="#F97316" opacity="0.5"/>
  <polygon points="248,286 240,282 240,294" fill="#F97316" opacity="0.45"/>
  <polygon points="402,286 394,282 394,294" fill="#F97316" opacity="0.45"/>
  <polygon points="528,126 520,122 520,134" fill="#F97316" opacity="0.4"/>
  <polygon points="528,286 520,282 520,294" fill="#F97316" opacity="0.4"/>

  <!-- NODE GLOWS-->
  <circle cx="130" cy="130" r="40" fill="#F97316" filter="url(#glowBlur)" opacity="0.12"/>
  <circle cx="290" cy="130" r="44" fill="#F97316" filter="url(#glowBlur)" opacity="0.18"/>
  <circle cx="444" cy="130" r="40" fill="#F97316" filter="url(#glowBlur)" opacity="0.12"/>
  <circle cx="290" cy="290" r="44" fill="#F97316" filter="url(#glowBlur)" opacity="0.16"/>

  <!-- NODE A1: Manual Input -->
  <g filter="url(#nodeShadow)">
    <rect x="68" y="96" width="124" height="68" rx="14" fill="white"/>
    <rect x="68" y="96" width="124" height="68" rx="14" fill="none" stroke="#F97316" stroke-width="1" opacity="0.2"/>
    <circle cx="93" cy="116" r="8" fill="#FDBA74" opacity="0.8"/>
    <path d="M80,138 Q93,128 106,138" stroke="#FB923C" stroke-width="2" fill="none" stroke-linecap="round" opacity="0.7"/>
    <text x="108" y="113" font-family="'Segoe UI',system-ui,sans-serif" font-size="9" font-weight="700" fill="#374151">Manual</text>
    <text x="108" y="126" font-family="'Segoe UI',system-ui,sans-serif" font-size="9" fill="#9CA3AF">Data Entry</text>
    <circle cx="108" cy="148" r="3" fill="#F97316" opacity="0.6"/>
    <circle cx="118" cy="148" r="3" fill="#F97316" opacity="0.35"/>
    <circle cx="128" cy="148" r="3" fill="#F97316" opacity="0.15"/>
  </g>

  <!-- NODE B1: Workflow Audit — orange featured -->
  <g filter="url(#nodeShadow)">
    <rect x="222" y="88" width="136" height="84" rx="14" fill="#F97316"/>
    <circle cx="264" cy="118" r="12" fill="none" stroke="white" stroke-width="2.2" opacity="0.9"/>
    <line x1="272" y1="126" x2="281" y2="135" stroke="white" stroke-width="2.5" stroke-linecap="round" opacity="0.9"/>
    <text x="284" y="114" font-family="'Segoe UI',system-ui,sans-serif" font-size="9.5" font-weight="700" fill="white">Workflow</text>
    <text x="284" y="128" font-family="'Segoe UI',system-ui,sans-serif" font-size="9.5" font-weight="700" fill="white">Audit</text>
    <rect x="238" y="148" width="104" height="6" rx="3" fill="white" opacity="0.25"/>
    <rect x="238" y="148" width="75" height="6" rx="3" fill="white" opacity="0.85"/>
    <text x="290" y="166" font-family="'Segoe UI',system-ui,sans-serif" font-size="8" fill="white" opacity="0.8" text-anchor="middle">75% analyzed</text>
  </g>

  <!-- NODE C1: Smart Automation -->
  <g filter="url(#nodeShadow)">
    <rect x="376" y="96" width="124" height="68" rx="14" fill="white"/>
    <rect x="376" y="96" width="124" height="68" rx="14" fill="none" stroke="#F97316" stroke-width="1" opacity="0.2"/>
    <circle cx="403" cy="118" r="11" fill="none" stroke="#F97316" stroke-width="2" opacity="0.8"/>
    <circle cx="403" cy="118" r="4" fill="#F97316" opacity="0.7"/>
    <line x1="403" y1="107" x2="403" y2="103" stroke="#F97316" stroke-width="2.5" stroke-linecap="round" opacity="0.7"/>
    <line x1="403" y1="129" x2="403" y2="133" stroke="#F97316" stroke-width="2.5" stroke-linecap="round" opacity="0.7"/>
    <line x1="392" y1="118" x2="388" y2="118" stroke="#F97316" stroke-width="2.5" stroke-linecap="round" opacity="0.7"/>
    <line x1="414" y1="118" x2="418" y2="118" stroke="#F97316" stroke-width="2.5" stroke-linecap="round" opacity="0.7"/>
    <text x="424" y="113" font-family="'Segoe UI',system-ui,sans-serif" font-size="9" font-weight="700" fill="#374151">Smart</text>
    <text x="424" y="126" font-family="'Segoe UI',system-ui,sans-serif" font-size="9" fill="#9CA3AF">Automation</text>
    <text x="424" y="148" font-family="'Segoe UI',system-ui,sans-serif" font-size="13" fill="#F97316" opacity="0.85">⚡</text>
  </g>

  <!-- NODE D1: −80% badge -->
  <g filter="url(#nodeShadow)">
    <rect x="524" y="106" width="90" height="48" rx="12" fill="white"/>
    <rect x="524" y="106" width="90" height="48" rx="12" fill="none" stroke="#F97316" stroke-width="0.8" opacity="0.25"/>
    <text x="569" y="127" font-family="'Segoe UI',system-ui,sans-serif" font-size="15" font-weight="900" fill="#F97316" text-anchor="middle">−80%</text>
    <text x="569" y="143" font-family="'Segoe UI',system-ui,sans-serif" font-size="8" fill="#9CA3AF" text-anchor="middle">manual work</text>
  </g>

  <!-- NODE A2: Process Mapping -->
  <g filter="url(#nodeShadow)">
    <rect x="68" y="256" width="124" height="68" rx="14" fill="white"/>
    <rect x="68" y="256" width="124" height="68" rx="14" fill="none" stroke="#FDBA74" stroke-width="1" opacity="0.4"/>
    <rect x="82" y="268" width="38" height="4" rx="2" fill="#FDBA74" opacity="0.7"/>
    <rect x="82" y="277" width="28" height="4" rx="2" fill="#FDBA74" opacity="0.5"/>
    <rect x="82" y="286" width="34" height="4" rx="2" fill="#FDBA74" opacity="0.6"/>
    <rect x="82" y="295" width="20" height="4" rx="2" fill="#FDBA74" opacity="0.4"/>
    <text x="128" y="272" font-family="'Segoe UI',system-ui,sans-serif" font-size="9" font-weight="700" fill="#374151">Process</text>
    <text x="128" y="285" font-family="'Segoe UI',system-ui,sans-serif" font-size="9" fill="#9CA3AF">Mapping</text>
    <text x="128" y="303" font-family="'Segoe UI',system-ui,sans-serif" font-size="8" fill="#F97316" opacity="0.9">&amp; Optimize</text>
  </g>

  <!-- NODE B2: System Integration — dark featured -->
  <g filter="url(#nodeShadow)">
    <rect x="222" y="248" width="136" height="84" rx="14" fill="#1A1A1A"/>
    <rect x="246" y="266" width="26" height="26" rx="6" fill="none" stroke="#F97316" stroke-width="2.2"/>
    <rect x="260" y="280" width="26" height="26" rx="6" fill="none" stroke="#FB923C" stroke-width="2.2"/>
    <line x1="259" y1="279" x2="272" y2="266" stroke="#F97316" stroke-width="1.2" opacity="0.5" stroke-dasharray="3 3"/>
    <text x="298" y="272" font-family="'Segoe UI',system-ui,sans-serif" font-size="9.5" font-weight="700" fill="white">System</text>
    <text x="298" y="286" font-family="'Segoe UI',system-ui,sans-serif" font-size="9.5" font-weight="700" fill="white">Integration</text>
    <circle cx="298" cy="308" r="5" fill="#F97316" opacity="0.2"/>
    <circle cx="298" cy="308" r="3" fill="#F97316"/>
    <text x="308" y="312" font-family="'Segoe UI',system-ui,sans-serif" font-size="8" fill="#9CA3AF">Live sync</text>
  </g>

  <!-- NODE C2: Staff Training -->
  <g filter="url(#nodeShadow)">
    <rect x="376" y="256" width="124" height="68" rx="14" fill="white"/>
    <rect x="376" y="256" width="124" height="68" rx="14" fill="none" stroke="#F97316" stroke-width="1" opacity="0.2"/>
    <polygon points="403,266 418,273 403,280 388,273" fill="#F97316" opacity="0.85"/>
    <rect x="390" y="280" width="26" height="16" rx="3" fill="#FDBA74" opacity="0.6"/>
    <text x="424" y="272" font-family="'Segoe UI',system-ui,sans-serif" font-size="9" font-weight="700" fill="#374151">Staff Training</text>
    <text x="424" y="285" font-family="'Segoe UI',system-ui,sans-serif" font-size="9" fill="#9CA3AF">Included</text>
    <circle cx="390" cy="307" r="8" fill="#F97316" opacity="0.12"/>
    <polyline points="385,307 389,312 397,301" stroke="#F97316" stroke-width="2.2" fill="none" stroke-linecap="round" stroke-linejoin="round"/>
    <text x="404" y="311" font-family="'Segoe UI',system-ui,sans-serif" font-size="8" fill="#F97316" opacity="0.9">0 headcount added</text>
  </g>

  <!-- NODE D2: 4× faster badge -->
  <g filter="url(#nodeShadow)">
    <rect x="524" y="266" width="90" height="48" rx="12" fill="#F97316"/>
    <text x="569" y="287" font-family="'Segoe UI',system-ui,sans-serif" font-size="14" font-weight="900" fill="white" text-anchor="middle">4× faster</text>
    <text x="569" y="303" font-family="'Segoe UI',system-ui,sans-serif" font-size="8" fill="white" opacity="0.85" text-anchor="middle">processing</text>
  </g>

  <!-- BEFORE / AFTER LABELS -->
  <rect x="68" y="230" width="52" height="20" rx="6" fill="#FEF3C7" opacity="0.95"/>
  <text x="94" y="244" font-family="'Segoe UI',system-ui,sans-serif" font-size="9" fill="#D97706" font-weight="700" text-anchor="middle">BEFORE</text>
  <rect x="376" y="230" width="46" height="20" rx="6" fill="#DCFCE7" opacity="0.95"/>
  <text x="399" y="244" font-family="'Segoe UI',system-ui,sans-serif" font-size="9" fill="#16A34A" font-weight="700" text-anchor="middle">AFTER</text>

  <!-- BOTTOM STAT STRIP -->
  <rect x="40" y="370" width="560" height="36" rx="10" fill="white" opacity="0.9" filter="url(#cardShadow)"/>
  <rect x="40" y="370" width="560" height="36" rx="10" fill="none" stroke="#F97316" stroke-width="0.6" opacity="0.15"/>
  <text x="148" y="393" font-family="'Segoe UI',system-ui,sans-serif" font-size="11" font-weight="800" fill="#F97316" text-anchor="middle">80% less manual work</text>
  <line x1="278" y1="376" x2="278" y2="400" stroke="#F97316" stroke-width="0.8" opacity="0.2"/>
  <text x="370" y="393" font-family="'Segoe UI',system-ui,sans-serif" font-size="11" font-weight="800" fill="#F97316" text-anchor="middle">0 added headcount</text>
  <line x1="460" y1="376" x2="460" y2="400" stroke="#F97316" stroke-width="0.8" opacity="0.2"/>
  <text x="530" y="393" font-family="'Segoe UI',system-ui,sans-serif" font-size="11" font-weight="800" fill="#F97316" text-anchor="middle">4× faster</text>

  <!-- Decorative scatter dots -->
  <circle cx="56" cy="52" r="3.5" fill="#FDBA74" opacity="0.5"/>
  <circle cx="590" cy="46" r="4" fill="#FB923C" opacity="0.4"/>
  <circle cx="614" cy="210" r="3" fill="#F97316" opacity="0.35"/>
  <circle cx="30" cy="210" r="3" fill="#FDBA74" opacity="0.35"/>
  <circle cx="320" cy="34" r="3.5" fill="#FB923C" opacity="0.35"/>

</svg>
