<svg width="660" height="460" viewBox="0 0 660 460" xmlns="http://www.w3.org/2000/svg">
  <defs>
    <linearGradient id="bg" x1="0%" y1="0%" x2="100%" y2="100%">
      <stop offset="0%" stop-color="#F2F0EC"/>
      <stop offset="100%" stop-color="#E8E4DE"/>
    </linearGradient>
    <linearGradient id="dark" x1="0%" y1="0%" x2="4%" y2="100%">
      <stop offset="0%" stop-color="#191B2D"/>
      <stop offset="100%" stop-color="#0D0F1C"/>
    </linearGradient>
    <linearGradient id="darkInner" x1="0%" y1="0%" x2="0%" y2="100%">
      <stop offset="0%" stop-color="#1C1E30"/>
      <stop offset="100%" stop-color="#111323"/>
    </linearGradient>
    <linearGradient id="orange" x1="0%" y1="0%" x2="100%" y2="100%">
      <stop offset="0%" stop-color="#FB923C"/>
      <stop offset="100%" stop-color="#EA580C"/>
    </linearGradient>
    <linearGradient id="white" x1="0%" y1="0%" x2="0%" y2="100%">
      <stop offset="0%" stop-color="#FFFFFF"/>
      <stop offset="100%" stop-color="#FAF8F5"/>
    </linearGradient>
    <linearGradient id="green" x1="0%" y1="0%" x2="100%" y2="100%">
      <stop offset="0%" stop-color="#34D399"/>
      <stop offset="100%" stop-color="#059669"/>
    </linearGradient>
    <linearGradient id="blue" x1="0%" y1="0%" x2="100%" y2="100%">
      <stop offset="0%" stop-color="#60A5FA"/>
      <stop offset="100%" stop-color="#2563EB"/>
    </linearGradient>
    <linearGradient id="amber" x1="0%" y1="0%" x2="100%" y2="100%">
      <stop offset="0%" stop-color="#FCD34D"/>
      <stop offset="100%" stop-color="#F59E0B"/>
    </linearGradient>
    <linearGradient id="radarFill" x1="0%" y1="0%" x2="100%" y2="100%">
      <stop offset="0%" stop-color="#FB923C" stop-opacity="0.25"/>
      <stop offset="100%" stop-color="#EA580C" stop-opacity="0.1"/>
    </linearGradient>
    <linearGradient id="roadLine" x1="0%" y1="0%" x2="100%" y2="0%">
      <stop offset="0%" stop-color="#FB923C"/>
      <stop offset="60%"  stop-color="#F97316"/>
      <stop offset="100%" stop-color="#FB923C" stop-opacity="0.3"/>
    </linearGradient>
    <linearGradient id="barOrange" x1="0%" y1="0%" x2="100%" y2="0%">
      <stop offset="0%" stop-color="#F97316"/>
      <stop offset="100%" stop-color="#FB923C"/>
    </linearGradient>
    <linearGradient id="barGreen" x1="0%" y1="0%" x2="100%" y2="0%">
      <stop offset="0%" stop-color="#34D399"/>
      <stop offset="100%" stop-color="#6EE7B7"/>
    </linearGradient>
    <linearGradient id="barBlue" x1="0%" y1="0%" x2="100%" y2="0%">
      <stop offset="0%" stop-color="#60A5FA"/>
      <stop offset="100%" stop-color="#93C5FD"/>
    </linearGradient>

    <filter id="shadow" x="-20%" y="-20%" width="140%" height="160%">
      <feDropShadow dx="0" dy="8" stdDeviation="16" flood-color="#00000022"/>
      <feDropShadow dx="0" dy="2" stdDeviation="4"  flood-color="#00000010"/>
    </filter>
    <filter id="shadowXs" x="-8%" y="-8%" width="116%" height="132%">
      <feDropShadow dx="0" dy="2" stdDeviation="4" flood-color="#00000012"/>
    </filter>
  </defs>

  <!-- Background -->
  <rect width="660" height="460" rx="18" fill="url(#bg)"/>

  <!-- Dot grid -->
  <g fill="#ADA69C" opacity="0.3">
    <circle cx="40" cy="40" r="1"/><circle cx="80" cy="40" r="1"/><circle cx="120" cy="40" r="1"/><circle cx="160" cy="40" r="1"/><circle cx="200" cy="40" r="1"/><circle cx="240" cy="40" r="1"/><circle cx="280" cy="40" r="1"/><circle cx="320" cy="40" r="1"/><circle cx="360" cy="40" r="1"/><circle cx="400" cy="40" r="1"/><circle cx="440" cy="40" r="1"/><circle cx="480" cy="40" r="1"/><circle cx="520" cy="40" r="1"/><circle cx="560" cy="40" r="1"/><circle cx="600" cy="40" r="1"/><circle cx="640" cy="40" r="1"/>
    <circle cx="40" cy="80" r="1"/><circle cx="80" cy="80" r="1"/><circle cx="120" cy="80" r="1"/><circle cx="160" cy="80" r="1"/><circle cx="200" cy="80" r="1"/><circle cx="240" cy="80" r="1"/><circle cx="280" cy="80" r="1"/><circle cx="320" cy="80" r="1"/><circle cx="360" cy="80" r="1"/><circle cx="400" cy="80" r="1"/><circle cx="440" cy="80" r="1"/><circle cx="480" cy="80" r="1"/><circle cx="520" cy="80" r="1"/><circle cx="560" cy="80" r="1"/><circle cx="600" cy="80" r="1"/><circle cx="640" cy="80" r="1"/>
    <circle cx="40" cy="120" r="1"/><circle cx="80" cy="120" r="1"/><circle cx="120" cy="120" r="1"/><circle cx="160" cy="120" r="1"/><circle cx="200" cy="120" r="1"/><circle cx="240" cy="120" r="1"/><circle cx="280" cy="120" r="1"/><circle cx="320" cy="120" r="1"/><circle cx="360" cy="120" r="1"/><circle cx="400" cy="120" r="1"/><circle cx="440" cy="120" r="1"/><circle cx="480" cy="120" r="1"/><circle cx="520" cy="120" r="1"/><circle cx="560" cy="120" r="1"/><circle cx="600" cy="120" r="1"/><circle cx="640" cy="120" r="1"/>
    <circle cx="40" cy="160" r="1"/><circle cx="80" cy="160" r="1"/><circle cx="120" cy="160" r="1"/><circle cx="160" cy="160" r="1"/><circle cx="200" cy="160" r="1"/><circle cx="240" cy="160" r="1"/><circle cx="280" cy="160" r="1"/><circle cx="320" cy="160" r="1"/><circle cx="360" cy="160" r="1"/><circle cx="400" cy="160" r="1"/><circle cx="440" cy="160" r="1"/><circle cx="480" cy="160" r="1"/><circle cx="520" cy="160" r="1"/><circle cx="560" cy="160" r="1"/><circle cx="600" cy="160" r="1"/><circle cx="640" cy="160" r="1"/>
    <circle cx="40" cy="200" r="1"/><circle cx="80" cy="200" r="1"/><circle cx="120" cy="200" r="1"/><circle cx="160" cy="200" r="1"/><circle cx="200" cy="200" r="1"/><circle cx="240" cy="200" r="1"/><circle cx="280" cy="200" r="1"/><circle cx="320" cy="200" r="1"/><circle cx="360" cy="200" r="1"/><circle cx="400" cy="200" r="1"/><circle cx="440" cy="200" r="1"/><circle cx="480" cy="200" r="1"/><circle cx="520" cy="200" r="1"/><circle cx="560" cy="200" r="1"/><circle cx="600" cy="200" r="1"/><circle cx="640" cy="200" r="1"/>
    <circle cx="40" cy="240" r="1"/><circle cx="80" cy="240" r="1"/><circle cx="120" cy="240" r="1"/><circle cx="160" cy="240" r="1"/><circle cx="200" cy="240" r="1"/><circle cx="240" cy="240" r="1"/><circle cx="280" cy="240" r="1"/><circle cx="320" cy="240" r="1"/><circle cx="360" cy="240" r="1"/><circle cx="400" cy="240" r="1"/><circle cx="440" cy="240" r="1"/><circle cx="480" cy="240" r="1"/><circle cx="520" cy="240" r="1"/><circle cx="560" cy="240" r="1"/><circle cx="600" cy="240" r="1"/><circle cx="640" cy="240" r="1"/>
    <circle cx="40" cy="280" r="1"/><circle cx="80" cy="280" r="1"/><circle cx="120" cy="280" r="1"/><circle cx="160" cy="280" r="1"/><circle cx="200" cy="280" r="1"/><circle cx="240" cy="280" r="1"/><circle cx="280" cy="280" r="1"/><circle cx="320" cy="280" r="1"/><circle cx="360" cy="280" r="1"/><circle cx="400" cy="280" r="1"/><circle cx="440" cy="280" r="1"/><circle cx="480" cy="280" r="1"/><circle cx="520" cy="280" r="1"/><circle cx="560" cy="280" r="1"/><circle cx="600" cy="280" r="1"/><circle cx="640" cy="280" r="1"/>
    <circle cx="40" cy="320" r="1"/><circle cx="80" cy="320" r="1"/><circle cx="120" cy="320" r="1"/><circle cx="160" cy="320" r="1"/><circle cx="200" cy="320" r="1"/><circle cx="240" cy="320" r="1"/><circle cx="280" cy="320" r="1"/><circle cx="320" cy="320" r="1"/><circle cx="360" cy="320" r="1"/><circle cx="400" cy="320" r="1"/><circle cx="440" cy="320" r="1"/><circle cx="480" cy="320" r="1"/><circle cx="520" cy="320" r="1"/><circle cx="560" cy="320" r="1"/><circle cx="600" cy="320" r="1"/><circle cx="640" cy="320" r="1"/>
    <circle cx="40" cy="360" r="1"/><circle cx="80" cy="360" r="1"/><circle cx="120" cy="360" r="1"/><circle cx="160" cy="360" r="1"/><circle cx="200" cy="360" r="1"/><circle cx="240" cy="360" r="1"/><circle cx="280" cy="360" r="1"/><circle cx="320" cy="360" r="1"/><circle cx="360" cy="360" r="1"/><circle cx="400" cy="360" r="1"/><circle cx="440" cy="360" r="1"/><circle cx="480" cy="360" r="1"/><circle cx="520" cy="360" r="1"/><circle cx="560" cy="360" r="1"/><circle cx="600" cy="360" r="1"/><circle cx="640" cy="360" r="1"/>
    <circle cx="40" cy="400" r="1"/><circle cx="80" cy="400" r="1"/><circle cx="120" cy="400" r="1"/><circle cx="160" cy="400" r="1"/><circle cx="200" cy="400" r="1"/><circle cx="240" cy="400" r="1"/><circle cx="280" cy="400" r="1"/><circle cx="320" cy="400" r="1"/><circle cx="360" cy="400" r="1"/><circle cx="400" cy="400" r="1"/><circle cx="440" cy="400" r="1"/><circle cx="480" cy="400" r="1"/><circle cx="520" cy="400" r="1"/><circle cx="560" cy="400" r="1"/><circle cx="600" cy="400" r="1"/><circle cx="640" cy="400" r="1"/>
    <circle cx="40" cy="440" r="1"/><circle cx="80" cy="440" r="1"/><circle cx="120" cy="440" r="1"/><circle cx="160" cy="440" r="1"/><circle cx="200" cy="440" r="1"/><circle cx="240" cy="440" r="1"/><circle cx="280" cy="440" r="1"/><circle cx="320" cy="440" r="1"/><circle cx="360" cy="440" r="1"/><circle cx="400" cy="440" r="1"/><circle cx="440" cy="440" r="1"/><circle cx="480" cy="440" r="1"/><circle cx="520" cy="440" r="1"/><circle cx="560" cy="440" r="1"/><circle cx="600" cy="440" r="1"/><circle cx="640" cy="440" r="1"/>
  </g>

  <!-- Warm glow -->
  <circle cx="330" cy="230" r="180" fill="#F97316" opacity="0.04"/>


  <!-- ══════════════════════════════════════
       TOP-LEFT: TECHNOLOGY ASSESSMENT
  ══════════════════════════════════════ -->
  <g filter="url(#shadow)">
    <rect x="22" y="22" width="304" height="204" rx="16" fill="url(#dark)"/>
    <rect x="22" y="22" width="5" height="204" rx="3" fill="url(#orange)"/>

    <text x="42" y="50" font-family="'Segoe UI',system-ui,sans-serif" font-size="10" font-weight="700" fill="white">Technology Assessment</text>

    <!-- Radar rings -->
    <circle cx="102" cy="134" r="60" fill="none" stroke="#2D3050" stroke-width="1.2"/>
    <circle cx="102" cy="134" r="42" fill="none" stroke="#2D3050" stroke-width="1"/>
    <circle cx="102" cy="134" r="24" fill="none" stroke="#2D3050" stroke-width="0.8"/>
    <!-- Axes -->
    <line x1="102" y1="74"  x2="102" y2="194" stroke="#2D3050" stroke-width="0.7"/>
    <line x1="42"  y1="134" x2="162" y2="134" stroke="#2D3050" stroke-width="0.7"/>
    <line x1="59"  y1="91"  x2="145" y2="177" stroke="#2D3050" stroke-width="0.7"/>
    <line x1="145" y1="91"  x2="59"  y2="177" stroke="#2D3050" stroke-width="0.7"/>
    <!-- Filled radar polygon -->
    <polygon points="102,80 142,116 128,168 76,168 62,116" fill="url(#radarFill)"/>
    <polygon points="102,80 142,116 128,168 76,168 62,116" fill="none" stroke="#F97316" stroke-width="1.8"/>
    <!-- Points -->
    <circle cx="102" cy="80"  r="4" fill="#F97316"/>
    <circle cx="142" cy="116" r="4" fill="#FB923C"/>
    <circle cx="128" cy="168" r="4" fill="#34D399"/>
    <circle cx="76"  cy="168" r="4" fill="#60A5FA"/>
    <circle cx="62"  cy="116" r="4" fill="#FCD34D"/>
    <!-- Axis labels -->
    <text x="102" y="70"  font-family="'Segoe UI',system-ui,sans-serif" font-size="6.5" fill="#FDBA74" text-anchor="middle">Security</text>
    <text x="156" y="114" font-family="'Segoe UI',system-ui,sans-serif" font-size="6.5" fill="#FDBA74">Scale</text>
    <text x="130" y="183" font-family="'Segoe UI',system-ui,sans-serif" font-size="6.5" fill="#6EE7B7">Cost</text>
    <text x="42"  y="183" font-family="'Segoe UI',system-ui,sans-serif" font-size="6.5" fill="#93C5FD">Perf.</text>
    <text x="34"  y="114" font-family="'Segoe UI',system-ui,sans-serif" font-size="6.5" fill="#FDE68A">Fit</text>

    <!-- Score cards -->
    <rect x="188" y="62"  width="120" height="36" rx="8" fill="#1C1E30"/>
    <text x="248" y="76"  font-family="'Segoe UI',system-ui,sans-serif" font-size="7"   fill="#6B7280" text-anchor="middle">Overall Score</text>
    <text x="248" y="91"  font-family="'Segoe UI',system-ui,sans-serif" font-size="16"  fill="#F97316"  text-anchor="middle" font-weight="800">87/100</text>

    <rect x="188" y="106" width="56" height="44" rx="8" fill="#1C1E30"/>
    <text x="216" y="120" font-family="'Segoe UI',system-ui,sans-serif" font-size="6.5" fill="#6B7280"  text-anchor="middle">Security</text>
    <text x="216" y="140" font-family="'Segoe UI',system-ui,sans-serif" font-size="15"  fill="#FB923C"  text-anchor="middle" font-weight="700">92</text>

    <rect x="252" y="106" width="56" height="44" rx="8" fill="#1C1E30"/>
    <text x="280" y="120" font-family="'Segoe UI',system-ui,sans-serif" font-size="6.5" fill="#6B7280"  text-anchor="middle">Scale</text>
    <text x="280" y="140" font-family="'Segoe UI',system-ui,sans-serif" font-size="15"  fill="#60A5FA"  text-anchor="middle" font-weight="700">85</text>

    <rect x="188" y="156" width="56" height="44" rx="8" fill="#1C1E30"/>
    <text x="216" y="170" font-family="'Segoe UI',system-ui,sans-serif" font-size="6.5" fill="#6B7280"  text-anchor="middle">Perf.</text>
    <text x="216" y="190" font-family="'Segoe UI',system-ui,sans-serif" font-size="15"  fill="#34D399"  text-anchor="middle" font-weight="700">79</text>

    <rect x="252" y="156" width="56" height="44" rx="8" fill="#1C1E30"/>
    <text x="280" y="170" font-family="'Segoe UI',system-ui,sans-serif" font-size="6.5" fill="#6B7280"  text-anchor="middle">Cost Fit</text>
    <text x="280" y="190" font-family="'Segoe UI',system-ui,sans-serif" font-size="15"  fill="#FCD34D"  text-anchor="middle" font-weight="700">88</text>
  </g>
  <g filter="url(#shadowXs)">
    <rect x="22" y="210" width="156" height="18" rx="9" fill="url(#orange)"/>
    <text x="100" y="223" font-family="'Segoe UI',system-ui,sans-serif" font-size="8.5" fill="white" text-anchor="middle" font-weight="700">Technology Assessment</text>
  </g>


  <!-- ══════════════════════════════════════
       TOP-RIGHT: VENDOR EVALUATION
  ══════════════════════════════════════ -->
  <g filter="url(#shadow)">
    <rect x="340" y="22" width="298" height="204" rx="16" fill="url(#white)"/>
    <rect x="340" y="22" width="298" height="204" rx="16" fill="none" stroke="#EDE8E2" stroke-width="1"/>
    <rect x="340" y="22" width="298" height="4" rx="2" fill="url(#orange)"/>

    <text x="356" y="50" font-family="'Segoe UI',system-ui,sans-serif" font-size="10" font-weight="700" fill="#111827">Vendor Evaluation</text>

    <!-- Headers -->
    <text x="358" y="68" font-family="'Segoe UI',system-ui,sans-serif" font-size="7.5" fill="#9CA3AF" font-weight="600">Vendor</text>
    <text x="472" y="68" font-family="'Segoe UI',system-ui,sans-serif" font-size="7.5" fill="#9CA3AF" font-weight="600" text-anchor="middle">Score</text>
    <text x="542" y="68" font-family="'Segoe UI',system-ui,sans-serif" font-size="7.5" fill="#9CA3AF" font-weight="600" text-anchor="middle">Rating</text>
    <text x="610" y="68" font-family="'Segoe UI',system-ui,sans-serif" font-size="7.5" fill="#9CA3AF" font-weight="600" text-anchor="middle">Status</text>
    <line x1="356" y1="72" x2="626" y2="72" stroke="#F3F0EA" stroke-width="1"/>

    <!-- Row 1: AWS – Recommended -->
    <rect x="348" y="78"  width="280" height="28" rx="6" fill="#FFF7ED"/>
    <rect x="348" y="78"  width="4"   height="28" rx="2" fill="url(#orange)"/>
    <text x="360" y="95"  font-family="'Segoe UI',system-ui,sans-serif" font-size="9"   fill="#111827" font-weight="700">AWS</text>
    <text x="360" y="101" font-family="'Segoe UI',system-ui,sans-serif" font-size="6"   fill="#9CA3AF">Cloud Infrastructure</text>
    <rect x="444" y="88"  width="56" height="5" rx="2.5" fill="#F3F0EA"/>
    <rect x="444" y="88"  width="50" height="5" rx="2.5" fill="url(#barOrange)"/>
    <text x="507" y="93"  font-family="'Segoe UI',system-ui,sans-serif" font-size="7"   fill="#F97316" font-weight="700">90%</text>
    <text x="542" y="96"  font-family="'Segoe UI',system-ui,sans-serif" font-size="8"   fill="#F97316" text-anchor="middle">★★★★★</text>
    <rect x="582" y="82"  width="48" height="14" rx="7" fill="url(#orange)"/>
    <text x="606" y="92"  font-family="'Segoe UI',system-ui,sans-serif" font-size="7.5" fill="white"  text-anchor="middle" font-weight="700">Rec.</text>

    <!-- Row 2: Azure -->
    <rect x="348" y="112" width="280" height="28" rx="6" fill="#FAFAF8"/>
    <rect x="348" y="112" width="4"   height="28" rx="2" fill="#60A5FA"/>
    <text x="360" y="129" font-family="'Segoe UI',system-ui,sans-serif" font-size="9"   fill="#111827" font-weight="700">Azure</text>
    <text x="360" y="135" font-family="'Segoe UI',system-ui,sans-serif" font-size="6"   fill="#9CA3AF">Enterprise Suite</text>
    <rect x="444" y="122" width="56" height="5" rx="2.5" fill="#F3F0EA"/>
    <rect x="444" y="122" width="45" height="5" rx="2.5" fill="url(#barBlue)"/>
    <text x="507" y="127" font-family="'Segoe UI',system-ui,sans-serif" font-size="7"   fill="#2563EB" font-weight="700">80%</text>
    <text x="542" y="130" font-family="'Segoe UI',system-ui,sans-serif" font-size="8"   fill="#FCD34D" text-anchor="middle">★★★★☆</text>
    <rect x="582" y="116" width="48" height="14" rx="7" fill="#EFF6FF"/>
    <text x="606" y="126" font-family="'Segoe UI',system-ui,sans-serif" font-size="7.5" fill="#2563EB" text-anchor="middle" font-weight="700">Review</text>

    <!-- Row 3: GCP -->
    <rect x="348" y="146" width="280" height="28" rx="6" fill="#FAFAF8"/>
    <rect x="348" y="146" width="4"   height="28" rx="2" fill="url(#green)"/>
    <text x="360" y="163" font-family="'Segoe UI',system-ui,sans-serif" font-size="9"   fill="#111827" font-weight="700">GCP</text>
    <text x="360" y="169" font-family="'Segoe UI',system-ui,sans-serif" font-size="6"   fill="#9CA3AF">Data Platform</text>
    <rect x="444" y="156" width="56" height="5" rx="2.5" fill="#F3F0EA"/>
    <rect x="444" y="156" width="39" height="5" rx="2.5" fill="url(#barGreen)"/>
    <text x="507" y="161" font-family="'Segoe UI',system-ui,sans-serif" font-size="7"   fill="#059669" font-weight="700">70%</text>
    <text x="542" y="164" font-family="'Segoe UI',system-ui,sans-serif" font-size="8"   fill="#FCD34D" text-anchor="middle">★★★☆☆</text>
    <rect x="582" y="150" width="48" height="14" rx="7" fill="#F0FDF4"/>
    <text x="606" y="160" font-family="'Segoe UI',system-ui,sans-serif" font-size="7.5" fill="#059669" text-anchor="middle" font-weight="700">Consider</text>

    <!-- Row 4: On-Premise -->
    <rect x="348" y="180" width="280" height="28" rx="6" fill="#FAFAF8"/>
    <rect x="348" y="180" width="4"   height="28" rx="2" fill="#D1D5DB"/>
    <text x="360" y="197" font-family="'Segoe UI',system-ui,sans-serif" font-size="9"   fill="#9CA3AF" font-weight="700">On-Premise</text>
    <text x="360" y="203" font-family="'Segoe UI',system-ui,sans-serif" font-size="6"   fill="#9CA3AF">Legacy Option</text>
    <rect x="444" y="190" width="56" height="5" rx="2.5" fill="#F3F0EA"/>
    <rect x="444" y="190" width="22" height="5" rx="2.5" fill="#D1D5DB"/>
    <text x="507" y="195" font-family="'Segoe UI',system-ui,sans-serif" font-size="7"   fill="#9CA3AF" font-weight="700">40%</text>
    <text x="542" y="198" font-family="'Segoe UI',system-ui,sans-serif" font-size="8"   fill="#D1D5DB" text-anchor="middle">★★☆☆☆</text>
    <rect x="582" y="184" width="48" height="14" rx="7" fill="#F9FAFB"/>
    <text x="606" y="194" font-family="'Segoe UI',system-ui,sans-serif" font-size="7.5" fill="#9CA3AF" text-anchor="middle" font-weight="700">Decline</text>
  </g>
  <g filter="url(#shadowXs)">
    <rect x="340" y="210" width="132" height="18" rx="9" fill="url(#dark)"/>
    <text x="406" y="223" font-family="'Segoe UI',system-ui,sans-serif" font-size="8.5" fill="white" text-anchor="middle" font-weight="700">Vendor Evaluation</text>
  </g>


  <!-- ══════════════════════════════════════
       BOTTOM-LEFT: ROADMAP PLANNING
  ══════════════════════════════════════ -->
  <g filter="url(#shadow)">
    <rect x="22" y="248" width="304" height="190" rx="16" fill="url(#dark)"/>
    <rect x="22" y="248" width="5" height="190" rx="3" fill="url(#orange)"/>

    <text x="42" y="274" font-family="'Segoe UI',system-ui,sans-serif" font-size="10" font-weight="700" fill="white">Roadmap Planning</text>
    <!-- Quarter badges -->
    <rect x="170" y="262" width="28" height="14" rx="7" fill="#F97316" opacity="0.2"/>
    <text x="184" y="273" font-family="'Segoe UI',system-ui,sans-serif" font-size="7" fill="#FB923C" text-anchor="middle" font-weight="700">Q1</text>
    <rect x="202" y="262" width="28" height="14" rx="7" fill="#F97316" opacity="0.2"/>
    <text x="216" y="273" font-family="'Segoe UI',system-ui,sans-serif" font-size="7" fill="#FB923C" text-anchor="middle" font-weight="700">Q2</text>
    <rect x="234" y="262" width="28" height="14" rx="7" fill="#34D399" opacity="0.15"/>
    <text x="248" y="273" font-family="'Segoe UI',system-ui,sans-serif" font-size="7" fill="#34D399" text-anchor="middle" font-weight="700">Q3</text>
    <rect x="266" y="262" width="28" height="14" rx="7" fill="#2D3050"/>
    <text x="280" y="273" font-family="'Segoe UI',system-ui,sans-serif" font-size="7" fill="#6B7280" text-anchor="middle" font-weight="700">Q4</text>

    <!-- Timeline spine -->
    <line x1="42" y1="312" x2="310" y2="312" stroke="#2D3050" stroke-width="1.5"/>
    <line x1="42" y1="312" x2="220" y2="312" stroke="url(#roadLine)" stroke-width="2.5" stroke-linecap="round"/>

    <!-- Phase 1: Done -->
    <circle cx="72"  cy="312" r="9" fill="#F97316"/>
    <text   x="72"  y="316" font-family="'Segoe UI',system-ui,sans-serif" font-size="8" fill="white" text-anchor="middle" font-weight="700">✓</text>
    <text   x="72"  y="330" font-family="'Segoe UI',system-ui,sans-serif" font-size="6.5" fill="#6B7280" text-anchor="middle">Discover</text>
    <rect x="42" y="285" width="60" height="22" rx="5" fill="#1C1E30"/>
    <text x="72" y="296" font-family="'Segoe UI',system-ui,sans-serif" font-size="7" fill="#FB923C" text-anchor="middle" font-weight="700">Assessment</text>
    <text x="72" y="304" font-family="'Segoe UI',system-ui,sans-serif" font-size="6" fill="#4B5563" text-anchor="middle">Done · Wk 2</text>

    <!-- Phase 2: Done -->
    <circle cx="138" cy="312" r="9" fill="#F97316"/>
    <text   x="138" y="316" font-family="'Segoe UI',system-ui,sans-serif" font-size="8" fill="white" text-anchor="middle" font-weight="700">✓</text>
    <text   x="138" y="330" font-family="'Segoe UI',system-ui,sans-serif" font-size="6.5" fill="#6B7280" text-anchor="middle">Design</text>
    <rect x="108" y="285" width="60" height="22" rx="5" fill="#1C1E30"/>
    <text x="138" y="296" font-family="'Segoe UI',system-ui,sans-serif" font-size="7" fill="#FB923C" text-anchor="middle" font-weight="700">Architecture</text>
    <text x="138" y="304" font-family="'Segoe UI',system-ui,sans-serif" font-size="6" fill="#4B5563" text-anchor="middle">Done · Wk 5</text>

    <!-- Phase 3: Active -->
    <circle cx="204" cy="312" r="10" fill="#1C1E30" stroke="#34D399" stroke-width="2"/>
    <circle cx="204" cy="312" r="5"  fill="#34D399"/>
    <text   x="204" y="330" font-family="'Segoe UI',system-ui,sans-serif" font-size="6.5" fill="#34D399" text-anchor="middle">Build</text>
    <rect x="174" y="285" width="60" height="22" rx="5" fill="#1C1E30"/>
    <text x="204" y="296" font-family="'Segoe UI',system-ui,sans-serif" font-size="7" fill="#34D399" text-anchor="middle" font-weight="700">Migration</text>
    <text x="204" y="304" font-family="'Segoe UI',system-ui,sans-serif" font-size="6" fill="#34D399" text-anchor="middle">Live · Wk 8</text>

    <!-- Phase 4: Upcoming -->
    <circle cx="270" cy="312" r="9" fill="#1C1E30" stroke="#2D3050" stroke-width="1.5"/>
    <text   x="270" y="330" font-family="'Segoe UI',system-ui,sans-serif" font-size="6.5" fill="#4B5563" text-anchor="middle">Launch</text>
    <rect x="240" y="285" width="60" height="22" rx="5" fill="#1C1E30"/>
    <text x="270" y="296" font-family="'Segoe UI',system-ui,sans-serif" font-size="7" fill="#4B5563" text-anchor="middle" font-weight="700">Go-Live</text>
    <text x="270" y="304" font-family="'Segoe UI',system-ui,sans-serif" font-size="6" fill="#4B5563" text-anchor="middle">Wk 12</text>

    <!-- Stats row -->
    <rect x="36" y="344" width="76" height="42" rx="8" fill="#1C1E30"/>
    <text x="74" y="358" font-family="'Segoe UI',system-ui,sans-serif" font-size="7"   fill="#6B7280" text-anchor="middle">Progress</text>
    <text x="74" y="378" font-family="'Segoe UI',system-ui,sans-serif" font-size="16"  fill="#F97316"  text-anchor="middle" font-weight="800">65%</text>

    <rect x="120" y="344" width="76" height="42" rx="8" fill="#1C1E30"/>
    <text x="158" y="358" font-family="'Segoe UI',system-ui,sans-serif" font-size="7"   fill="#6B7280" text-anchor="middle">On Schedule</text>
    <text x="158" y="378" font-family="'Segoe UI',system-ui,sans-serif" font-size="16"  fill="#34D399"  text-anchor="middle" font-weight="800">Yes</text>

    <rect x="204" y="344" width="106" height="42" rx="8" fill="#1C1E30"/>
    <text x="257" y="358" font-family="'Segoe UI',system-ui,sans-serif" font-size="7"   fill="#6B7280" text-anchor="middle">Next Milestone</text>
    <text x="257" y="375" font-family="'Segoe UI',system-ui,sans-serif" font-size="10"  fill="#60A5FA"  text-anchor="middle" font-weight="700">Go-Live · Wk 12</text>
  </g>
  <g filter="url(#shadowXs)">
    <rect x="22" y="422" width="126" height="18" rx="9" fill="url(#orange)"/>
    <text x="85" y="435" font-family="'Segoe UI',system-ui,sans-serif" font-size="8.5" fill="white" text-anchor="middle" font-weight="700">Roadmap Planning</text>
  </g>


  <!-- ══════════════════════════════════════
       BOTTOM-RIGHT: ARCHITECTURE REVIEW
  ══════════════════════════════════════ -->
  <g filter="url(#shadow)">
    <rect x="340" y="248" width="298" height="190" rx="16" fill="url(#white)"/>
    <rect x="340" y="248" width="298" height="190" rx="16" fill="none" stroke="#EDE8E2" stroke-width="1"/>
    <rect x="340" y="248" width="298" height="4" rx="2" fill="url(#orange)"/>

    <text x="356" y="274" font-family="'Segoe UI',system-ui,sans-serif" font-size="10" font-weight="700" fill="#111827">Architecture Review</text>
    <rect x="498" y="261" width="74" height="18" rx="9" fill="#F0FDF4"/>
    <circle cx="508" cy="270" r="3.5" fill="#22C55E"/>
    <text x="543" y="274" font-family="'Segoe UI',system-ui,sans-serif" font-size="7.5" fill="#059669" text-anchor="middle" font-weight="700">Reviewed</text>

    <!-- Arch nodes left column -->
    <rect x="352" y="288" width="68" height="26" rx="6" fill="#FFF7ED"/>
    <text x="386" y="305" font-family="'Segoe UI',system-ui,sans-serif" font-size="7.5" fill="#EA580C" text-anchor="middle" font-weight="700">Client App</text>
    <line x1="386" y1="314" x2="386" y2="328" stroke="#E5E7EB" stroke-width="1.5" stroke-dasharray="3 2"/>
    <polygon points="386,330 383,324 389,324" fill="#E5E7EB"/>

    <rect x="352" y="332" width="68" height="26" rx="6" fill="#FFF7ED"/>
    <text x="386" y="349" font-family="'Segoe UI',system-ui,sans-serif" font-size="7.5" fill="#EA580C" text-anchor="middle" font-weight="700">API Gateway</text>
    <line x1="386" y1="358" x2="386" y2="370" stroke="#E5E7EB" stroke-width="1.5" stroke-dasharray="3 2"/>
    <polygon points="386,372 383,366 389,366" fill="#E5E7EB"/>

    <rect x="352" y="374" width="68" height="26" rx="6" fill="#FFF7ED"/>
    <text x="386" y="391" font-family="'Segoe UI',system-ui,sans-serif" font-size="7.5" fill="#EA580C" text-anchor="middle" font-weight="700">Services</text>

    <!-- Connector lines -->
    <line x1="420" y1="301" x2="446" y2="301" stroke="#E5E7EB" stroke-width="1.5" stroke-dasharray="3 2"/>
    <line x1="420" y1="345" x2="446" y2="345" stroke="#E5E7EB" stroke-width="1.5" stroke-dasharray="3 2"/>
    <line x1="420" y1="387" x2="446" y2="387" stroke="#E5E7EB" stroke-width="1.5" stroke-dasharray="3 2"/>

    <!-- Review cards right -->
    <rect x="448" y="286" width="178" height="30" rx="7" fill="#FAFAF8" stroke="#EDE8E2" stroke-width="1"/>
    <rect x="448" y="286" width="4"   height="30" rx="2" fill="url(#orange)"/>
    <text x="460" y="300" font-family="'Segoe UI',system-ui,sans-serif" font-size="7.5" fill="#111827" font-weight="700">Auth &amp; Security Layer</text>
    <text x="460" y="309" font-family="'Segoe UI',system-ui,sans-serif" font-size="6.5" fill="#6B7280">OAuth 2.0 · JWT · Rate limiting</text>
    <rect x="596" y="291" width="24" height="12" rx="6" fill="#F0FDF4"/>
    <text x="608" y="300" font-family="'Segoe UI',system-ui,sans-serif" font-size="6.5" fill="#059669" text-anchor="middle" font-weight="700">OK</text>

    <rect x="448" y="322" width="178" height="30" rx="7" fill="#FAFAF8" stroke="#EDE8E2" stroke-width="1"/>
    <rect x="448" y="322" width="4"   height="30" rx="2" fill="#60A5FA"/>
    <text x="460" y="336" font-family="'Segoe UI',system-ui,sans-serif" font-size="7.5" fill="#111827" font-weight="700">Data &amp; Caching</text>
    <text x="460" y="345" font-family="'Segoe UI',system-ui,sans-serif" font-size="6.5" fill="#6B7280">Redis · PostgreSQL · Backups</text>
    <rect x="596" y="327" width="24" height="12" rx="6" fill="#F0FDF4"/>
    <text x="608" y="336" font-family="'Segoe UI',system-ui,sans-serif" font-size="6.5" fill="#059669" text-anchor="middle" font-weight="700">OK</text>

    <rect x="448" y="360" width="178" height="30" rx="7" fill="#FFFBEB" stroke="#FDE68A" stroke-width="1"/>
    <rect x="448" y="360" width="4"   height="30" rx="2" fill="url(#amber)"/>
    <text x="460" y="374" font-family="'Segoe UI',system-ui,sans-serif" font-size="7.5" fill="#111827" font-weight="700">Observability Stack</text>
    <text x="460" y="383" font-family="'Segoe UI',system-ui,sans-serif" font-size="6.5" fill="#6B7280">Logs · Alerts · Dashboards</text>
    <rect x="590" y="365" width="36" height="12" rx="6" fill="#FFFBEB"/>
    <text x="608" y="374" font-family="'Segoe UI',system-ui,sans-serif" font-size="6.5" fill="#D97706" text-anchor="middle" font-weight="700">Improve</text>

    <!-- Summary strip -->
    <rect x="352" y="406" width="274" height="22" rx="8" fill="#FFF7ED"/>
    <text x="366" y="421" font-family="'Segoe UI',system-ui,sans-serif" font-size="7.5" fill="#F97316" font-weight="700">2 Passed</text>
    <text x="420" y="421" font-family="'Segoe UI',system-ui,sans-serif" font-size="7.5" fill="#D1D5DB">·</text>
    <text x="432" y="421" font-family="'Segoe UI',system-ui,sans-serif" font-size="7.5" fill="#D97706" font-weight="700">1 Needs Attention</text>
    <text x="534" y="421" font-family="'Segoe UI',system-ui,sans-serif" font-size="7.5" fill="#D1D5DB">·</text>
    <text x="546" y="421" font-family="'Segoe UI',system-ui,sans-serif" font-size="7.5" fill="#059669" font-weight="700">Report Ready</text>
  </g>
  <g filter="url(#shadowXs)">
    <rect x="340" y="422" width="134" height="18" rx="9" fill="url(#orange)"/>
    <text x="407" y="435" font-family="'Segoe UI',system-ui,sans-serif" font-size="8.5" fill="white" text-anchor="middle" font-weight="700">Architecture Review</text>
  </g>

</svg>
